Coordinates
version=1
nRows=18
nColumns=22
inDegrees=yes

Units are S.I. units (second, meters, Newtons, ...)
If the header above contains a line with 'inDegrees', this indicates whether rotational values are in degrees (yes) or radians (no).

endheader
time	pelvis_tilt	pelvis_list	pelvis_rotation	pelvis_tx	pelvis_ty	pelvis_tz	hip_flexion_r	hip_adduction_r	hip_rotation_r	knee_angle_r	ankle_angle_r	subtalar_angle_r	hip_flexion_l	hip_adduction_l	hip_rotation_l	knee_angle_l	ankle_angle_l	subtalar_angle_l	lumbar_extension	lumbar_bending	lumbar_rotation
      6.82000000	     -8.04170224	      1.42013401	    275.19011929	     -0.51486234	      0.95715740	      0.15167290	     18.60410972	     -5.57135036	     -2.97462658	    -48.67120131	      7.81086901	      1.30580169	     11.55843588	      5.46942133	      9.77719655	    -23.71638955	     12.10509550	    -12.49379976	     -0.70076335	     -0.01344816	     -2.47695463
      6.83000000	     -8.04728474	      1.26220932	    276.82631296	     -0.51169796	      0.95721263	      0.16001735	     19.06586571	     -5.51465669	     -2.67830193	    -47.31676709	      8.21710743	      1.39135506	     10.57150546	      5.68328103	     11.16142936	    -23.26589123	     12.33814441	    -12.44876616	     -0.57763289	      0.03772257	     -2.87381826
      6.84000000	     -8.04793885	      1.09954436	    278.47428120	     -0.50845615	      0.95720001	      0.16820062	     19.54043926	     -5.45031056	     -2.35004334	    -46.02140218	      8.53177895	      1.51940335	      9.59092564	      5.85628825	     12.54865321	    -22.82885913	     12.57166342	    -12.39753120	     -0.46290356	      0.08208216	     -3.24426360
      6.85000000	     -8.05071255	      0.93026474	    280.13834974	     -0.50515481	      0.95712795	      0.17620953	     20.02414078	     -5.38112052	     -2.02213292	    -44.78408884	      8.75709945	      1.65959392	      8.61786167	      5.98278154	     13.95486728	    -22.40712073	     12.79773588	    -12.34694531	     -0.36246494	      0.12644143	     -3.59575505
      6.86000000	     -8.05988168	      0.74877863	    281.81658215	     -0.50181526	      0.95701254	      0.18404585	     20.50787826	     -5.30556628	     -1.71169355	    -43.59856958	      8.90465095	      1.79445426	      7.64585003	      6.05705187	     15.38630552	    -21.99656390	     13.01051409	    -12.30921444	     -0.28125186	      0.17668333	     -3.93075452
      6.87000000	     -8.07188161	      0.56049813	    283.50845461	     -0.49844257	      0.95685125	      0.19170391	     20.99855594	     -5.23603743	     -1.44065216	    -42.46617518	      8.97793090	      1.91074336	      6.68200024	      6.08531972	     16.85119782	    -21.59791770	     13.20237012	    -12.29435597	     -0.21411912	      0.22919407	     -4.24648474
      6.88000000	     -8.08615719	      0.32790074	    285.19521851	     -0.49504593	      0.95670539	      0.19923397	     21.44887122	     -5.16191898	     -1.21412693	    -41.37148435	      9.00102122	      2.03160604	      5.67692676	      6.05083817	     18.32787364	    -21.19353789	     13.38271945	    -12.34312185	     -0.19891126	      0.29666871	     -4.52490728
      6.89000000	     -8.07547930	      0.14681818	    286.89729816	     -0.49159236	      0.95644382	      0.20651806	     21.98147021	     -5.15217462	     -1.05083836	    -40.35461483	      8.92026121	      2.11688699	      4.75924669	      6.02505468	     19.83602707	    -20.83583831	     13.51224211	    -12.36651512	     -0.14890418	      0.32705309	     -4.80399171
      6.90000000	     -8.05594438	     -0.10780961	    288.56589807	     -0.48808505	      0.95625511	      0.21376526	     22.43147447	     -5.13583238	     -0.93553591	    -39.36181234	      8.78920279	      2.22482367	      3.75573273	      5.93388010	     21.32856890	    -20.45667869	     13.64848450	    -12.47508417	     -0.17460446	      0.38011001	     -5.01488321
      6.91000000	     -8.00847175	     -0.33963708	    290.21970788	     -0.48451599	      0.95601214	      0.22086093	     22.91778655	     -5.16766946	     -0.87143999	    -38.42487143	      8.54765063	      2.33237924	      2.79264200	      5.84060020	     22.81347135	    -20.10363597	     13.75966855	    -12.56002049	     -0.19173820	      0.40687032	     -5.20536497
      6.92000000	     -7.94008726	     -0.54882320	    291.85235892	     -0.48088734	      0.95572212	      0.22782902	     23.43621286	     -5.23728142	     -0.85429217	    -37.53716410	      8.17386457	      2.44107123	      1.87287021	      5.74233437	     24.28157845	    -19.78401625	     13.83597819	    -12.58981678	     -0.19845499	      0.41411367	     -5.35592504
      6.93000000	     -7.85982502	     -0.82201723	    293.43511048	     -0.47722685	      0.95551279	      0.23483522	     23.86739037	     -5.28046067	     -0.86454161	    -36.64828688	      7.69299041	      2.56889068	      0.86340716	      5.57140546	     25.70423925	    -19.41753738	     13.97022379	    -12.67862408	     -0.26865735	      0.44210501	     -5.45566332
      6.94000000	     -7.77280858	     -1.06623192	    294.98473672	     -0.47354536	      0.95525594	      0.24177068	     24.33381003	     -5.32998065	     -0.89067046	    -35.79465342	      7.05313200	      2.70313453	     -0.10131430	      5.37894318	     27.09609761	    -19.06837712	     14.06977896	    -12.72879456	     -0.31344592	      0.45908633	     -5.50984812
      6.95000000	     -7.68535025	     -1.31244927	    296.49446137	     -0.46985332	      0.95500039	      0.24870216	     24.78575283	     -5.35916697	     -0.92532911	    -34.94408694	      6.28139486	      2.85588525	     -1.06882066	      5.13511798	     28.44061433	    -18.70011527	     14.16877696	    -12.76753102	     -0.35843623	      0.48152260	     -5.52604436
      6.96000000	     -7.60142869	     -1.56951136	    297.94891067	     -0.46617498	      0.95476190	      0.25566027	     25.21513838	     -5.34747164	     -0.94243610	    -34.08882168	      5.39346607	      3.03678319	     -2.05645359	      4.82749489	     29.73271645	    -18.29234833	     14.24683723	    -12.81616327	     -0.40954191	      0.51588435	     -5.48605272
      6.97000000	     -7.52246235	     -1.78858474	    299.38152890	     -0.46248124	      0.95445942	      0.26258942	     25.66347143	     -5.32993862	     -0.95393989	    -33.22418528	      4.45199873	      3.24017834	     -2.99696262	      4.48846767	     30.98658953	    -17.87513722	     14.34786016	    -12.82706730	     -0.42115489	      0.53815213	     -5.46602284
      6.98000000	     -7.44370452	     -2.03171283	    300.75008583	     -0.45878248	      0.95419591	      0.26958487	     26.05772555	     -5.26247730	     -0.93343933	    -32.32566613	      3.50417780	      3.48670421	     -3.98067283	      4.08021416	     32.17449369	    -17.39766070	     14.40505308	    -12.85487813	     -0.45174907	      0.57565529	     -5.38197642
      6.99000000	     -7.36727041	     -2.23894501	    302.10106475	     -0.45504852	      0.95386718	      0.27656701	     26.45503042	     -5.19243769	     -0.89685511	    -31.40116891	      2.63046407	      3.74268047	     -4.92460371	      3.64443607	     33.32726816	    -16.90284458	     14.47198426	    -12.85175067	     -0.44738448	      0.59712720	     -5.33776038
